<?xml version="1.0" standalone="no"?>
<!DOCTYPE svg PUBLIC "-//W3C//DTD SVG 20010904//EN"
 "http://www.w3.org/TR/2001/REC-SVG-20010904/DTD/svg10.dtd">
<svg version="1.0" xmlns="http://www.w3.org/2000/svg"
 width="522.000000pt" height="181.000000pt" viewBox="0 0 522.000000 181.000000"
 preserveAspectRatio="xMidYMid meet">

<g transform="translate(0.000000,181.000000) scale(0.100000,-0.100000)"
fill="#000000" stroke="none">
<path d="M760 1799 c-389 -34 -689 -149 -746 -286 -21 -48 -20 -1169 0 -1217
49 -118 285 -222 623 -273 110 -17 240 -18 1973 -18 1693 0 1865 1 1966 17
172 26 254 47 248 63 -6 16 25 28 64 24 97 -9 281 100 318 188 20 47 20 1169
0 1216 -36 86 -193 177 -391 227 -266 68 -140 64 -2145 66 -998 1 -1858 -2
-1910 -7z m2007 -380 c243 -20 415 -57 551 -120 104 -48 155 -88 181 -142 54
-111 -6 -209 -175 -289 -135 -63 -469 -136 -581 -126 l-37 3 62 38 c34 21 83
54 107 73 52 39 75 47 30 9 -22 -17 -25 -24 -13 -25 9 0 28 14 42 31 17 19 32
29 42 25 8 -3 13 -2 10 2 -3 5 24 21 59 36 129 56 170 145 103 221 -41 48
-110 82 -223 110 -135 34 -256 45 -515 45 -223 0 -230 -1 -230 -20 0 -11 -6
-20 -12 -20 -22 0 -122 -50 -145 -72 -48 -45 -23 -107 58 -148 78 -40 218 -98
223 -92 3 3 6 29 6 59 0 42 -4 55 -17 59 -81 26 -84 32 -62 120 15 60 29 56
29 -9 0 -58 4 -68 26 -60 8 3 14 20 15 42 0 20 4 45 8 56 7 16 9 14 14 -14 4
-19 7 -44 7 -57 0 -14 6 -24 14 -24 10 0 17 17 21 55 9 65 17 64 25 -3 4 -34
10 -48 23 -50 14 -3 17 5 17 52 0 31 4 56 8 56 12 0 32 -70 32 -109 0 -37 -28
-52 -95 -54 -22 0 -30 -2 -19 -4 19 -4 22 -14 30 -85 l9 -80 59 -24 c60 -24
188 -34 200 -16 3 5 10 48 16 96 12 99 8 110 -43 120 -81 15 -103 73 -46 120
39 33 65 39 144 34 66 -4 104 -22 131 -63 22 -33 -2 -67 -61 -87 l-50 -16 0
-76 c0 -46 -5 -80 -12 -87 -7 -7 -13 -17 -13 -21 0 -13 28 -9 33 5 3 6 6 -3 6
-21 1 -30 -5 -36 -101 -99 -57 -36 -110 -68 -118 -70 -12 -3 -404 169 -704
310 -86 40 -136 86 -136 127 0 31 38 84 74 101 14 7 11 2 -8 -14 l-29 -24 24
-6 c17 -5 31 0 49 17 14 13 36 30 49 39 21 14 22 17 8 23 -10 3 -23 2 -30 -4
-9 -8 -11 5 -9 61 2 40 5 78 7 85 6 16 742 17 932 1z m-673 -571 l250 -113
-244 -3 c-135 -1 -250 0 -257 3 -10 3 -13 35 -13 115 0 60 3 110 7 110 4 0
119 -51 257 -112z m141 -278 c7 -11 -35 -23 -61 -18 -9 1 -19 9 -22 16 -5 15
74 17 83 2z m-185 -79 l0 -80 -152 2 c-166 2 -210 13 -216 54 -2 16 5 26 29
39 40 20 180 30 232 16 37 -10 37 -10 37 19 0 27 3 29 35 29 l35 0 0 -79z
m180 -21 l0 -60 -38 0 -37 0 -2 60 -1 60 39 0 39 0 0 -60z m170 51 c0 -6 16
-5 37 1 53 14 176 5 207 -16 21 -13 26 -25 26 -56 l0 -40 -41 0 c-40 0 -41 0
-37 36 4 47 -20 64 -88 64 -79 0 -104 -15 -104 -62 0 -37 -1 -38 -35 -38 l-35
0 0 60 0 60 35 0 c19 0 35 -4 35 -9z m598 0 c20 -6 32 -6 32 0 0 5 16 9 35 9
l35 0 0 -65 c0 -63 -1 -65 -32 -82 -55 -29 -337 -23 -289 6 7 5 30 4 50 -1 51
-14 169 -5 189 15 22 23 13 27 -33 17 -80 -19 -195 -4 -237 30 -22 18 -22 19
-5 38 10 11 35 25 55 30 49 13 159 14 200 3z m487 -9 c61 -21 72 -50 29 -79
-34 -22 -207 -31 -271 -14 -41 11 -73 34 -73 51 0 14 46 42 83 50 58 14 180
10 232 -8z"/>
<path d="M2232 1118 c3 -7 15 -15 28 -16 21 -3 22 -2 11 12 -16 19 -44 21 -39
4z"/>
<path d="M2683 963 c-7 -17 13 -33 40 -33 10 0 17 8 17 19 0 24 -49 36 -57 14z"/>
<path d="M1784 501 c-35 -15 -39 -32 -14 -53 33 -26 158 -26 191 1 23 19 23
20 6 38 -20 20 -146 30 -183 14z"/>
<path d="M2834 500 c-79 -32 21 -83 128 -66 69 11 90 43 43 64 -30 14 -140 15
-171 2z"/>
<path d="M3273 498 c-29 -14 -35 -34 -16 -50 22 -18 146 -23 183 -8 37 15 39
43 5 58 -32 15 -142 14 -172 0z"/>
<path d="M4878 93 c7 -3 16 -2 19 1 4 3 -2 6 -13 5 -11 0 -14 -3 -6 -6z"/>
</g>
</svg>
