<?xml version="1.0" standalone="no"?>
<!DOCTYPE svg PUBLIC "-//W3C//DTD SVG 20010904//EN"
 "http://www.w3.org/TR/2001/REC-SVG-20010904/DTD/svg10.dtd">
<svg version="1.0" xmlns="http://www.w3.org/2000/svg"
 width="200.000000pt" height="150.000000pt" viewBox="0 0 200.000000 150.000000"
 preserveAspectRatio="xMidYMid meet">

<g transform="translate(0.000000,150.000000) scale(0.100000,-0.100000)"
fill="#000000" stroke="none">
<path d="M325 1494 c-62 -8 -135 -26 -135 -33 0 -4 -12 -13 -27 -20 -59 -26
-101 -64 -129 -114 l-29 -52 0 -525 0 -525 23 -44 c28 -52 63 -86 117 -113 22
-12 43 -26 47 -32 4 -6 8 -7 8 -2 0 5 6 3 14 -3 29 -24 185 -30 786 -30 592 0
757 6 785 29 6 5 15 7 18 3 4 -3 7 -1 7 5 0 6 9 14 20 17 11 4 18 10 15 15 -7
12 23 33 39 27 18 -7 61 35 90 88 21 39 21 47 21 565 0 520 0 525 -22 566 -27
50 -70 93 -120 119 -21 11 -40 23 -43 26 -23 30 -96 33 -770 35 -377 1 -698 0
-715 -2z m756 -323 c107 -27 142 -44 191 -94 56 -58 83 -129 75 -202 -9 -85
-35 -126 -133 -206 -27 -21 -91 -45 -144 -54 l-45 -7 21 23 c11 13 33 43 49
67 16 24 45 56 65 72 94 75 69 226 -47 284 -37 19 -143 36 -225 36 -50 0 -58
-3 -58 -18 0 -10 -11 -29 -25 -42 -31 -29 -44 -75 -34 -113 7 -25 94 -126 109
-127 3 0 5 21 6 48 0 34 -5 51 -18 60 -20 14 -24 81 -8 117 7 15 9 10 9 -25
-1 -68 3 -72 11 -10 l7 55 1 -54 c1 -30 5 -51 9 -47 4 4 6 28 4 54 -3 58 16
47 22 -13 4 -39 4 -39 6 10 3 41 4 46 11 25 16 -50 11 -98 -11 -114 -20 -14
-21 -21 -15 -82 8 -74 29 -103 77 -104 25 0 26 2 33 83 6 79 5 83 -18 102 -33
27 -39 65 -15 104 27 45 72 42 98 -6 18 -34 13 -62 -15 -90 -26 -26 -27 -29
-21 -118 l5 -91 -44 -60 -44 -59 -145 143 c-80 79 -153 158 -161 174 -20 39
-13 100 15 139 16 22 21 43 21 94 l0 65 154 0 c117 0 171 -4 227 -19z m-209
-537 l27 -31 -97 1 -97 1 -3 100 -3 99 73 -69 c40 -39 85 -84 100 -101z m-16
-155 c10 -17 -13 -36 -27 -22 -12 12 -4 33 11 33 5 0 12 -5 16 -11z m-66 -68
l0 -68 -57 -2 c-40 -1 -62 4 -75 16 -42 38 -5 88 62 81 36 -3 40 -1 40 19 0
14 6 23 15 23 12 0 15 -14 15 -69z m65 -21 c0 -41 -3 -50 -17 -50 -15 0 -18 9
-18 50 0 41 3 50 18 50 14 0 17 -9 17 -50z m153 37 c5 -6 12 -29 14 -49 3 -31
1 -38 -14 -38 -14 0 -18 8 -18 41 0 39 -1 40 -32 37 -30 -3 -33 -6 -36 -40 -2
-25 -8 -38 -18 -38 -10 0 -14 13 -14 49 l0 48 54 2 c32 0 58 -4 64 -12z m182
-41 c0 -57 -13 -81 -49 -89 -34 -8 -81 3 -81 19 0 10 7 13 25 8 30 -7 75 2 75
16 0 6 -11 8 -25 4 -14 -3 -39 -1 -55 6 -23 10 -30 19 -30 41 0 36 22 49 88
47 l52 -1 0 -51z m148 38 c45 -31 14 -84 -50 -84 -37 0 -78 26 -78 50 0 6 9
19 20 30 24 24 77 26 108 4z"/>
<path d="M1000 996 c0 -5 69 -46 78 -46 4 0 -10 11 -30 25 -36 24 -48 30 -48
21z"/>
<path d="M1012 924 c15 -15 30 -26 33 -23 2 3 -10 16 -28 29 l-32 23 27 -29z"/>
<path d="M674 398 c-6 -22 16 -48 41 -48 25 0 47 26 41 48 -6 17 -15 22 -41
22 -26 0 -35 -5 -41 -22z"/>
<path d="M1095 416 c-9 -7 -15 -21 -13 -32 2 -14 12 -19 38 -19 30 0 35 3 35
24 0 29 -35 45 -60 27z"/>
<path d="M1251 407 c-6 -8 -9 -22 -5 -30 15 -40 88 -25 82 16 -4 27 -58 36
-77 14z"/>
</g>
</svg>
